+ filenameToUse=/home/horvathandras/vatic/vatic/public/videouploads/DJI_0450_sok_ragas_vaskut_20180608_napos_napraforgo_T3.avi
+ filenameNoDot=DJI_0450_sok_ragas_vaskut_20180608_napos_napraforgo_T3
+ FullUploadPath=/home/horvathandras/vatic/vatic/public/videouploads/DJI_0450_sok_ragas_vaskut_20180608_napos_napraforgo_T3.avi
+ VideoDataDir=/home/horvathandras/vatic/vatic/videos
+ AvailableObjectTypes='PozitívROI NegatívROI Túrás ~Friss ~1-2Hetes ~Régebbi ~Egyéb1 ~Egyéb2 ~Egyéb3 Rágás ~Friss ~1-2Hetes ~Régebbi ~Egyéb1 ~Egyéb2 ~Egyéb3 Törés ~Friss ~1-2Hetes ~Régebbi ~Egyéb1 ~Egyéb2 ~Egyéb3 Taposás ~Friss ~1-2Hetes ~Régebbi ~Egyéb1 ~Egyéb2 ~Egyéb3 EgészségesNövény Egyéb1 Egyéb2 Egyéb3 Egyéb4 Egyéb5 Bizonytalan Művelőút Gktaposás Vetőhiba Széldöntés Jégkár Belvíz Aszály Erózió EgyszikűGyom KétszikűGyom EgyébNövvédelmiPR'
++ dirname /home/horvathandras/vatic/vatic/vatic_publisher.sh
+ cd /home/horvathandras/vatic/vatic
+ touch /home/horvathandras/vatic/vatic/public/videouploads/DJI_0450_sok_ragas_vaskut_20180608_napos_napraforgo_T3.avi
+ chmod 744 /home/horvathandras/vatic/vatic/public/videouploads/DJI_0450_sok_ragas_vaskut_20180608_napos_napraforgo_T3.avi
+ mkdir /home/horvathandras/vatic/vatic/videos/DJI_0450_sok_ragas_vaskut_20180608_napos_napraforgo_T3
+ turkic extract /home/horvathandras/vatic/vatic/public/videouploads/DJI_0450_sok_ragas_vaskut_20180608_napos_napraforgo_T3.avi /home/horvathandras/vatic/vatic/videos/DJI_0450_sok_ragas_vaskut_20180608_napos_napraforgo_T3 --no-resize
ffmpeg version 2.8.14-0ubuntu0.16.04.1 Copyright (c) 2000-2018 the FFmpeg developers
  built with gcc 5.4.0 (Ubuntu 5.4.0-6ubuntu1~16.04.9) 20160609
  configuration: --prefix=/usr --extra-version=0ubuntu0.16.04.1 --build-suffix=-ffmpeg --toolchain=hardened --libdir=/usr/lib/x86_64-linux-gnu --incdir=/usr/include/x86_64-linux-gnu --cc=cc --cxx=g++ --enable-gpl --enable-shared --disable-stripping --disable-decoder=libopenjpeg --disable-decoder=libschroedinger --enable-avresample --enable-avisynth --enable-gnutls --enable-ladspa --enable-libass --enable-libbluray --enable-libbs2b --enable-libcaca --enable-libcdio --enable-libflite --enable-libfontconfig --enable-libfreetype --enable-libfribidi --enable-libgme --enable-libgsm --enable-libmodplug --enable-libmp3lame --enable-libopenjpeg --enable-libopus --enable-libpulse --enable-librtmp --enable-libschroedinger --enable-libshine --enable-libsnappy --enable-libsoxr --enable-libspeex --enable-libssh --enable-libtheora --enable-libtwolame --enable-libvorbis --enable-libvpx --enable-libwavpack --enable-libwebp --enable-libx265 --enable-libxvid --enable-libzvbi --enable-openal --enable-opengl --enable-x11grab --enable-libdc1394 --enable-libiec61883 --enable-libzmq --enable-frei0r --enable-libx264 --enable-libopencv
  libavutil      54. 31.100 / 54. 31.100
  libavcodec     56. 60.100 / 56. 60.100
  libavformat    56. 40.101 / 56. 40.101
  libavdevice    56.  4.100 / 56.  4.100
  libavfilter     5. 40.101 /  5. 40.101
  libavresample   2.  1.  0 /  2.  1.  0
  libswscale      3.  1.101 /  3.  1.101
  libswresample   1.  2.101 /  1.  2.101
  libpostproc    53.  3.100 / 53.  3.100
Input #0, mov,mp4,m4a,3gp,3g2,mj2, from '/home/horvathandras/vatic/vatic/public/videouploads/DJI_0450_sok_ragas_vaskut_20180608_napos_napraforgo_T3.avi':
  Metadata:
    major_brand     : qt  
    minor_version   : 537986816
    compatible_brands: qt  
    creation_time   : 2018-06-08 07:36:17
    location        : +46.091661+18.980799+30.200
    location-{    : +46.091661+18.980799+30.200
    comment         : DE=None, Mode=P, DSW=0001
  Duration: 00:00:17.16, start: 0.000000, bitrate: 101240 kb/s
    Stream #0:0(eng): Video: h264 (High) (avc1 / 0x31637661), yuv420p(tv, bt709), 4096x2160 [SAR 1:1 DAR 256:135], 101001 kb/s, 50 fps, 50 tbr, 50k tbn, 100 tbc (default)
    Metadata:
      creation_time   : 2018-06-08 07:36:17
      handler_name    : DJI.AVC
      encoder         : AVC encoder
    Stream #0:1(eng): Data: none (priv / 0x76697270), 222 kb/s
    Metadata:
      creation_time   : 2018-06-08 07:36:17
      handler_name    : DJI.Meta
Please use -b:a or -b:v, -b is ambiguous
[swscaler @ 0x1819c60] deprecated pixel format used, make sure you did set range correctly
Output #0, image2, to '/tmp/pyvision-ffmpeg-394664891/%d.jpg':
  Metadata:
    major_brand     : qt  
    minor_version   : 537986816
    compatible_brands: qt  
    comment         : DE=None, Mode=P, DSW=0001
    location        : +46.091661+18.980799+30.200
    location-{    : +46.091661+18.980799+30.200
    encoder         : Lavf56.40.101
    Stream #0:0(eng): Video: mjpeg, yuvj420p(pc), 4096x2160 [SAR 1:1 DAR 256:135], q=2-31, 10000 kb/s, 50 fps, 50 tbn, 50 tbc (default)
    Metadata:
      creation_time   : 2018-06-08 07:36:17
      handler_name    : DJI.AVC
      encoder         : Lavc56.60.100 mjpeg
Stream mapping:
  Stream #0:0 -> #0:0 (h264 (native) -> mjpeg (native))
Press [q] to stop, [?] for help
frame=    1 fps=0.0 q=18.2 size=N/A time=00:00:00.02 bitrate=N/A    frame=    5 fps=4.5 q=24.8 size=N/A time=00:00:00.10 bitrate=N/A    frame=   10 fps=5.9 q=24.8 size=N/A time=00:00:00.20 bitrate=N/A    frame=   15 fps=6.6 q=24.8 size=N/A time=00:00:00.30 bitrate=N/A    frame=   20 fps=7.1 q=24.8 size=N/A time=00:00:00.40 bitrate=N/A    frame=   25 fps=7.4 q=24.8 size=N/A time=00:00:00.50 bitrate=N/A    frame=   29 fps=7.4 q=24.8 size=N/A time=00:00:00.58 bitrate=N/A    frame=   33 fps=7.3 q=24.8 size=N/A time=00:00:00.66 bitrate=N/A    frame=   38 fps=7.5 q=24.8 size=N/A time=00:00:00.76 bitrate=N/A    frame=   43 fps=7.6 q=24.8 size=N/A time=00:00:00.86 bitrate=N/A    frame=   48 fps=7.7 q=24.8 size=N/A time=00:00:00.96 bitrate=N/A    frame=   53 fps=7.8 q=24.8 size=N/A time=00:00:01.06 bitrate=N/A    frame=   58 fps=7.9 q=24.8 size=N/A time=00:00:01.16 bitrate=N/A    frame=   62 fps=7.8 q=24.8 size=N/A time=00:00:01.24 bitrate=N/A    frame=   67 fps=7.9 q=24.8 size=N/A time=00:00:01.34 bitrate=N/A    frame=   72 fps=7.9 q=24.8 size=N/A time=00:00:01.44 bitrate=N/A    frame=   77 fps=8.0 q=24.8 size=N/A time=00:00:01.54 bitrate=N/A    frame=   81 fps=7.9 q=24.8 size=N/A time=00:00:01.62 bitrate=N/A    frame=   86 fps=8.0 q=24.8 size=N/A time=00:00:01.72 bitrate=N/A    frame=   90 fps=8.0 q=24.8 size=N/A time=00:00:01.80 bitrate=N/A    frame=   94 fps=7.9 q=24.8 size=N/A time=00:00:01.88 bitrate=N/A    frame=   99 fps=8.0 q=24.8 size=N/A time=00:00:01.98 bitrate=N/A    frame=  104 fps=8.0 q=24.8 size=N/A time=00:00:02.08 bitrate=N/A    frame=  109 fps=8.0 q=24.8 size=N/A time=00:00:02.18 bitrate=N/A    frame=  114 fps=8.1 q=24.8 size=N/A time=00:00:02.28 bitrate=N/A    frame=  119 fps=8.1 q=24.8 size=N/A time=00:00:02.38 bitrate=N/A    frame=  123 fps=8.1 q=24.8 size=N/A time=00:00:02.46 bitrate=N/A    frame=  128 fps=8.1 q=24.8 size=N/A time=00:00:02.56 bitrate=N/A    frame=  133 fps=8.1 q=24.8 size=N/A time=00:00:02.66 bitrate=N/A    frame=  138 fps=8.2 q=24.8 size=N/A time=00:00:02.76 bitrate=N/A    frame=  143 fps=8.2 q=24.8 size=N/A time=00:00:02.86 bitrate=N/A    frame=  148 fps=8.2 q=24.8 size=N/A time=00:00:02.96 bitrate=N/A    frame=  153 fps=8.2 q=24.8 size=N/A time=00:00:03.06 bitrate=N/A    frame=  158 fps=8.2 q=24.8 size=N/A time=00:00:03.16 bitrate=N/A    frame=  163 fps=8.2 q=24.8 size=N/A time=00:00:03.26 bitrate=N/A    frame=  168 fps=8.2 q=24.8 size=N/A time=00:00:03.36 bitrate=N/A    frame=  173 fps=8.3 q=24.8 size=N/A time=00:00:03.46 bitrate=N/A    frame=  178 fps=8.3 q=24.8 size=N/A time=00:00:03.56 bitrate=N/A    frame=  183 fps=8.3 q=24.8 size=N/A time=00:00:03.66 bitrate=N/A    frame=  188 fps=8.3 q=24.8 size=N/A time=00:00:03.76 bitrate=N/A    frame=  193 fps=8.3 q=24.8 size=N/A time=00:00:03.86 bitrate=N/A    frame=  198 fps=8.3 q=24.8 size=N/A time=00:00:03.96 bitrate=N/A    frame=  203 fps=8.3 q=24.8 size=N/A time=00:00:04.06 bitrate=N/A    frame=  208 fps=8.4 q=24.8 size=N/A time=00:00:04.16 bitrate=N/A    frame=  213 fps=8.4 q=24.8 size=N/A time=00:00:04.26 bitrate=N/A    frame=  218 fps=8.4 q=24.8 size=N/A time=00:00:04.36 bitrate=N/A    frame=  223 fps=8.4 q=24.8 size=N/A time=00:00:04.46 bitrate=N/A    frame=  228 fps=8.4 q=24.8 size=N/A time=00:00:04.56 bitrate=N/A    frame=  233 fps=8.4 q=24.8 size=N/A time=00:00:04.66 bitrate=N/A    frame=  238 fps=8.4 q=24.8 size=N/A time=00:00:04.76 bitrate=N/A    frame=  242 fps=8.4 q=24.8 size=N/A time=00:00:04.84 bitrate=N/A    frame=  246 fps=8.4 q=24.8 size=N/A time=00:00:04.92 bitrate=N/A    frame=  251 fps=8.4 q=24.8 size=N/A time=00:00:05.02 bitrate=N/A    frame=  255 fps=8.4 q=24.8 size=N/A time=00:00:05.10 bitrate=N/A    frame=  260 fps=8.4 q=24.8 size=N/A time=00:00:05.20 bitrate=N/A    frame=  265 fps=8.4 q=24.8 size=N/A time=00:00:05.30 bitrate=N/A    frame=  270 fps=8.4 q=24.8 size=N/A time=00:00:05.40 bitrate=N/A    frame=  275 fps=8.4 q=24.8 size=N/A time=00:00:05.50 bitrate=N/A    frame=  280 fps=8.4 q=24.8 size=N/A time=00:00:05.60 bitrate=N/A    frame=  285 fps=8.4 q=24.8 size=N/A time=00:00:05.70 bitrate=N/A    frame=  290 fps=8.4 q=24.8 size=N/A time=00:00:05.80 bitrate=N/A    frame=  295 fps=8.4 q=24.8 size=N/A time=00:00:05.90 bitrate=N/A    frame=  299 fps=8.4 q=24.8 size=N/A time=00:00:05.98 bitrate=N/A    frame=  304 fps=8.4 q=24.8 size=N/A time=00:00:06.08 bitrate=N/A    frame=  309 fps=8.4 q=24.8 size=N/A time=00:00:06.18 bitrate=N/A    frame=  314 fps=8.4 q=24.8 size=N/A time=00:00:06.28 bitrate=N/A    frame=  319 fps=8.4 q=24.8 size=N/A time=00:00:06.38 bitrate=N/A    frame=  324 fps=8.4 q=24.8 size=N/A time=00:00:06.48 bitrate=N/A    frame=  329 fps=8.4 q=24.8 size=N/A time=00:00:06.58 bitrate=N/A    frame=  333 fps=8.4 q=24.8 size=N/A time=00:00:06.66 bitrate=N/A    frame=  338 fps=8.4 q=24.8 size=N/A time=00:00:06.76 bitrate=N/A    frame=  343 fps=8.4 q=24.8 size=N/A time=00:00:06.86 bitrate=N/A    frame=  348 fps=8.4 q=24.8 size=N/A time=00:00:06.96 bitrate=N/A    frame=  353 fps=8.4 q=24.8 size=N/A time=00:00:07.06 bitrate=N/A    frame=  358 fps=8.4 q=24.8 size=N/A time=00:00:07.16 bitrate=N/A    frame=  362 fps=8.4 q=24.8 size=N/A time=00:00:07.24 bitrate=N/A    frame=  367 fps=8.4 q=24.8 size=N/A time=00:00:07.34 bitrate=N/A    frame=  372 fps=8.4 q=24.8 size=N/A time=00:00:07.44 bitrate=N/A    frame=  377 fps=8.4 q=24.8 size=N/A time=00:00:07.54 bitrate=N/A    frame=  382 fps=8.4 q=24.8 size=N/A time=00:00:07.64 bitrate=N/A    frame=  387 fps=8.5 q=24.8 size=N/A time=00:00:07.74 bitrate=N/A    frame=  392 fps=8.5 q=24.8 size=N/A time=00:00:07.84 bitrate=N/A    frame=  396 fps=8.4 q=24.8 size=N/A time=00:00:07.92 bitrate=N/A    frame=  401 fps=8.4 q=24.8 size=N/A time=00:00:08.02 bitrate=N/A    frame=  406 fps=8.4 q=24.8 size=N/A time=00:00:08.12 bitrate=N/A    frame=  411 fps=8.4 q=24.8 size=N/A time=00:00:08.22 bitrate=N/A    frame=  416 fps=8.4 q=24.8 size=N/A time=00:00:08.32 bitrate=N/A    frame=  421 fps=8.4 q=24.8 size=N/A time=00:00:08.42 bitrate=N/A    frame=  426 fps=8.4 q=24.8 size=N/A time=00:00:08.52 bitrate=N/A    frame=  431 fps=8.4 q=24.8 size=N/A time=00:00:08.62 bitrate=N/A    frame=  436 fps=8.4 q=24.8 size=N/A time=00:00:08.72 bitrate=N/A    frame=  441 fps=8.4 q=24.8 size=N/A time=00:00:08.82 bitrate=N/A    frame=  446 fps=8.4 q=24.8 size=N/A time=00:00:08.92 bitrate=N/A    frame=  451 fps=8.4 q=24.8 size=N/A time=00:00:09.02 bitrate=N/A    frame=  456 fps=8.4 q=24.8 size=N/A time=00:00:09.12 bitrate=N/A    frame=  461 fps=8.4 q=24.8 size=N/A time=00:00:09.22 bitrate=N/A    frame=  465 fps=8.4 q=24.8 size=N/A time=00:00:09.30 bitrate=N/A    frame=  470 fps=8.4 q=24.8 size=N/A time=00:00:09.40 bitrate=N/A    frame=  474 fps=8.4 q=24.8 size=N/A time=00:00:09.48 bitrate=N/A    frame=  479 fps=8.4 q=24.8 size=N/A time=00:00:09.58 bitrate=N/A    frame=  483 fps=8.4 q=24.8 size=N/A time=00:00:09.66 bitrate=N/A    frame=  488 fps=8.4 q=24.8 size=N/A time=00:00:09.76 bitrate=N/A    frame=  493 fps=8.4 q=24.8 size=N/A time=00:00:09.86 bitrate=N/A    frame=  498 fps=8.4 q=24.8 size=N/A time=00:00:09.96 bitrate=N/A    frame=  503 fps=8.4 q=24.8 size=N/A time=00:00:10.06 bitrate=N/A    frame=  508 fps=8.4 q=24.8 size=N/A time=00:00:10.16 bitrate=N/A    frame=  512 fps=8.4 q=24.8 size=N/A time=00:00:10.24 bitrate=N/A    frame=  516 fps=8.4 q=24.8 size=N/A time=00:00:10.32 bitrate=N/A    frame=  521 fps=8.4 q=24.8 size=N/A time=00:00:10.42 bitrate=N/A    frame=  526 fps=8.4 q=24.8 size=N/A time=00:00:10.52 bitrate=N/A    frame=  531 fps=8.4 q=24.8 size=N/A time=00:00:10.62 bitrate=N/A    frame=  536 fps=8.4 q=24.8 size=N/A time=00:00:10.72 bitrate=N/A    frame=  541 fps=8.4 q=24.8 size=N/A time=00:00:10.82 bitrate=N/A    frame=  546 fps=8.4 q=24.8 size=N/A time=00:00:10.92 bitrate=N/A    frame=  551 fps=8.4 q=24.8 size=N/A time=00:00:11.02 bitrate=N/A    frame=  556 fps=8.4 q=24.8 size=N/A time=00:00:11.12 bitrate=N/A    frame=  561 fps=8.4 q=24.8 size=N/A time=00:00:11.22 bitrate=N/A    frame=  566 fps=8.4 q=24.8 size=N/A time=00:00:11.32 bitrate=N/A    frame=  571 fps=8.4 q=24.8 size=N/A time=00:00:11.42 bitrate=N/A    frame=  576 fps=8.4 q=24.8 size=N/A time=00:00:11.52 bitrate=N/A    frame=  581 fps=8.4 q=24.8 size=N/A time=00:00:11.62 bitrate=N/A    frame=  586 fps=8.4 q=24.8 size=N/A time=00:00:11.72 bitrate=N/A    frame=  591 fps=8.5 q=24.8 size=N/A time=00:00:11.82 bitrate=N/A    frame=  596 fps=8.5 q=24.8 size=N/A time=00:00:11.92 bitrate=N/A    frame=  600 fps=8.4 q=24.8 size=N/A time=00:00:12.00 bitrate=N/A    frame=  605 fps=8.4 q=24.8 size=N/A time=00:00:12.10 bitrate=N/A    frame=  610 fps=8.5 q=24.8 size=N/A time=00:00:12.20 bitrate=N/A    frame=  615 fps=8.5 q=24.8 size=N/A time=00:00:12.30 bitrate=N/A    frame=  620 fps=8.5 q=24.8 size=N/A time=00:00:12.40 bitrate=N/A    frame=  625 fps=8.5 q=24.8 size=N/A time=00:00:12.50 bitrate=N/A    frame=  630 fps=8.5 q=24.8 size=N/A time=00:00:12.60 bitrate=N/A    frame=  634 fps=8.5 q=24.8 size=N/A time=00:00:12.68 bitrate=N/A    frame=  639 fps=8.5 q=24.8 size=N/A time=00:00:12.78 bitrate=N/A    frame=  644 fps=8.5 q=24.8 size=N/A time=00:00:12.88 bitrate=N/A    frame=  649 fps=8.5 q=24.8 size=N/A time=00:00:12.98 bitrate=N/A    frame=  654 fps=8.5 q=24.8 size=N/A time=00:00:13.08 bitrate=N/A    frame=  659 fps=8.5 q=24.8 size=N/A time=00:00:13.18 bitrate=N/A    frame=  663 fps=8.5 q=24.8 size=N/A time=00:00:13.26 bitrate=N/A    frame=  668 fps=8.5 q=24.8 size=N/A time=00:00:13.36 bitrate=N/A    frame=  673 fps=8.5 q=24.8 size=N/A time=00:00:13.46 bitrate=N/A    frame=  678 fps=8.5 q=24.8 size=N/A time=00:00:13.56 bitrate=N/A    frame=  683 fps=8.5 q=24.8 size=N/A time=00:00:13.66 bitrate=N/A    frame=  688 fps=8.5 q=24.8 size=N/A time=00:00:13.76 bitrate=N/A    frame=  693 fps=8.5 q=24.8 size=N/A time=00:00:13.86 bitrate=N/A    frame=  698 fps=8.5 q=24.8 size=N/A time=00:00:13.96 bitrate=N/A    frame=  703 fps=8.5 q=24.8 size=N/A time=00:00:14.06 bitrate=N/A    frame=  708 fps=8.5 q=24.8 size=N/A time=00:00:14.16 bitrate=N/A    frame=  713 fps=8.5 q=24.8 size=N/A time=00:00:14.26 bitrate=N/A    frame=  718 fps=8.5 q=24.8 size=N/A time=00:00:14.36 bitrate=N/A    frame=  723 fps=8.5 q=24.8 size=N/A time=00:00:14.46 bitrate=N/A    frame=  728 fps=8.5 q=24.8 size=N/A time=00:00:14.56 bitrate=N/A    frame=  733 fps=8.5 q=24.8 size=N/A time=00:00:14.66 bitrate=N/A    frame=  738 fps=8.5 q=24.8 size=N/A time=00:00:14.76 bitrate=N/A    frame=  743 fps=8.5 q=24.8 size=N/A time=00:00:14.86 bitrate=N/A    frame=  748 fps=8.5 q=24.8 size=N/A time=00:00:14.96 bitrate=N/A    frame=  753 fps=8.5 q=24.8 size=N/A time=00:00:15.06 bitrate=N/A    frame=  758 fps=8.5 q=24.8 size=N/A time=00:00:15.16 bitrate=N/A    frame=  763 fps=8.5 q=24.8 size=N/A time=00:00:15.26 bitrate=N/A    frame=  768 fps=8.5 q=24.8 size=N/A time=00:00:15.36 bitrate=N/A    frame=  773 fps=8.5 q=24.8 size=N/A time=00:00:15.46 bitrate=N/A    frame=  778 fps=8.5 q=24.8 size=N/A time=00:00:15.56 bitrate=N/A    frame=  782 fps=8.5 q=24.8 size=N/A time=00:00:15.64 bitrate=N/A    frame=  787 fps=8.5 q=24.8 size=N/A time=00:00:15.74 bitrate=N/A    frame=  792 fps=8.5 q=24.8 size=N/A time=00:00:15.84 bitrate=N/A    frame=  797 fps=8.5 q=24.8 size=N/A time=00:00:15.94 bitrate=N/A    frame=  802 fps=8.5 q=24.8 size=N/A time=00:00:16.04 bitrate=N/A    frame=  807 fps=8.5 q=24.8 size=N/A time=00:00:16.14 bitrate=N/A    frame=  811 fps=8.5 q=24.8 size=N/A time=00:00:16.22 bitrate=N/A    frame=  816 fps=8.5 q=24.8 size=N/A time=00:00:16.32 bitrate=N/A    frame=  821 fps=8.5 q=24.8 size=N/A time=00:00:16.42 bitrate=N/A    frame=  826 fps=8.5 q=24.8 size=N/A time=00:00:16.52 bitrate=N/A    frame=  831 fps=8.5 q=24.8 size=N/A time=00:00:16.62 bitrate=N/A    frame=  836 fps=8.5 q=24.8 size=N/A time=00:00:16.72 bitrate=N/A    frame=  841 fps=8.5 q=24.8 size=N/A time=00:00:16.82 bitrate=N/A    frame=  846 fps=8.5 q=24.8 size=N/A time=00:00:16.92 bitrate=N/A    frame=  851 fps=8.5 q=24.8 size=N/A time=00:00:17.02 bitrate=N/A    frame=  856 fps=8.5 q=24.8 size=N/A time=00:00:17.12 bitrate=N/A    frame=  858 fps=8.5 q=24.8 Lsize=N/A time=00:00:17.16 bitrate=N/A    
video:657411kB audio:0kB subtitle:0kB other streams:0kB global headers:0kB muxing overhead: unknown
+ turkic load DJI_0450_sok_ragas_vaskut_20180608_napos_napraforgo_T3 /home/horvathandras/vatic/vatic/videos/DJI_0450_sok_ragas_vaskut_20180608_napos_napraforgo_T3 $'Pozit\303\255vROI' $'Negat\303\255vROI' $'T\303\272r\303\241s' '~Friss' '~1-2Hetes' '~Régebbi' '~Egyéb1' '~Egyéb2' '~Egyéb3' $'R\303\241g\303\241s' '~Friss' '~1-2Hetes' '~Régebbi' '~Egyéb1' '~Egyéb2' '~Egyéb3' $'T\303\266r\303\251s' '~Friss' '~1-2Hetes' '~Régebbi' '~Egyéb1' '~Egyéb2' '~Egyéb3' $'Tapos\303\241s' '~Friss' '~1-2Hetes' '~Régebbi' '~Egyéb1' '~Egyéb2' '~Egyéb3' $'Eg\303\251szs\303\251gesN\303\266v\303\251ny' $'Egy\303\251b1' $'Egy\303\251b2' $'Egy\303\251b3' $'Egy\303\251b4' $'Egy\303\251b5' Bizonytalan $'M\305\261vel\305\221\303\272t' $'Gktapos\303\241s' $'Vet\305\221hiba' $'Sz\303\251ld\303\266nt\303\251s' $'J\303\251gk\303\241r' $'Belv\303\255z' $'Asz\303\241ly' $'Er\303\263zi\303\263' $'Egyszik\305\261Gyom' $'K\303\251tszik\305\261Gyom' $'Egy\303\251bN\303\266vv\303\251delmiPR' --offline --title '$filenameNoDot Video' --length 1000 --description 'vatic annotation'
+ turkic publish --offline
+ mkdir /home/horvathandras/vatic/vatic/public/videothumbnails/DJI_0450_sok_ragas_vaskut_20180608_napos_napraforgo_T3
+ cp /home/horvathandras/vatic/vatic/videos/DJI_0450_sok_ragas_vaskut_20180608_napos_napraforgo_T3/0/0/31.jpg /home/horvathandras/vatic/vatic/public/videothumbnails/DJI_0450_sok_ragas_vaskut_20180608_napos_napraforgo_T3/thumb.jpg
